# xmcd CD database file
#
# Track frame offsets:
#	150
#	24200
#	41522
#	58475
#	73690
#	95675
#	117662
#	139617
#	151295
#	175235
#	198122
#
# Disc length: 2955 seconds
#
# Revision: 1
# Processed by: cddbd v1.5.1PL0 Copyright (c) Steve Scherf et al.
# Submitted via: CDex 1.51
#
DISCID=980b890b
DTITLE=SUNSETS - HEAT SCALE
DYEAR=1981
DGENRE=New Age
TTITLE0=HEAT SCALE-WORDS AND DANCES
TTITLE1=THE GREAT WALL
TTITLE2=BON GAZUNA
TTITLE3=TOHMEI NINGEN
TTITLE4=EL PUZZLO
TTITLE5=AN ANTENNA
TTITLE6=THE EVE OF ADAM
TTITLE7=GONG LOOP
TTITLE8=KINGDOM WITHOUT CORNERS
TTITLE9=DHYANA PURA
TTITLE10=AN ANTENNA(Dub Version)
EXTD=YEAR: 1981
EXTT0=
EXTT1=
EXTT2=
EXTT3=
EXTT4=
EXTT5=
EXTT6=
EXTT7=
EXTT8=
EXTT9=
EXTT10=
PLAYORDER=
